<svg width="119" height="127" viewBox="0 0 119 127" fill="none" xmlns="http://www.w3.org/2000/svg">
<path d="M17.1432 117.509C16.1669 116.992 15.7941 115.782 16.3106 114.806L24.7276 98.8949C25.2441 97.9186 26.4543 97.5458 27.4307 98.0623C28.407 98.5788 28.7798 99.789 28.2633 100.765L20.7815 114.908L34.9245 122.39C35.9009 122.907 36.2737 124.117 35.7571 125.093C35.2406 126.07 34.0304 126.442 33.0541 125.926L17.1432 117.509ZM1.30989 0.0732631C38.585 9.96558 67.0184 19.4074 86.528 28.6969C96.2801 33.3404 103.893 37.9878 109.281 42.6984C114.657 47.3985 117.989 52.3152 118.811 57.5117C119.644 62.7774 117.835 67.9046 113.835 72.8353C109.862 77.7331 103.635 82.5642 95.3084 87.3998C78.6447 97.0766 53.0571 107.059 18.6672 117.652L17.4897 113.83C51.8137 103.257 77.0438 93.3807 93.2997 83.9408C101.432 79.218 107.191 74.6761 110.729 70.3154C114.239 65.9876 115.467 61.9709 114.86 58.1365C114.243 54.2328 111.662 50.093 106.648 45.7097C101.647 41.3367 94.3958 36.8735 84.8084 32.3084C65.639 23.1809 37.4921 13.814 0.28386 3.93943L1.30989 0.0732631Z" fill="black"/>
</svg>
