<svg width="343" height="70" viewBox="0 0 343 70" fill="none" xmlns="http://www.w3.org/2000/svg">
<path d="M342.22 4.30772C342.358 3.49093 341.808 2.71662 340.992 2.57826L327.681 0.323469C326.864 0.185104 326.09 0.735077 325.952 1.55187C325.813 2.36866 326.363 3.14296 327.18 3.28133L339.012 5.28559L337.007 17.117C336.869 17.9338 337.419 18.7081 338.236 18.8465C339.053 18.9849 339.827 18.4349 339.965 17.6181L342.22 4.30772ZM0.299976 21.3838C65.727 55.9075 122.463 72.2468 177.201 69.7284C231.952 67.2095 284.515 45.8335 341.61 5.2801L339.873 2.83427C283.082 43.171 231.066 64.247 177.063 66.7316C123.048 69.2167 66.8556 53.111 1.70002 18.7305L0.299976 21.3838Z" fill="black"/>
</svg>
