<svg width="1440" height="904" viewBox="0 0 1440 904" fill="none" xmlns="http://www.w3.org/2000/svg">
<g style="mix-blend-mode:luminosity" clip-path="url(#clip0_26_2)">
<path d="M537.68 771.296C549.472 806.672 538.736 850.144 510.224 871.44C481.536 892.912 435.072 892.208 406.208 870.56C377.168 848.736 365.728 805.968 377.168 770.768C388.784 735.568 423.104 708.112 457.424 708.112C491.744 708.112 526.064 735.744 537.68 771.296Z" stroke="black" stroke-opacity="0.03" stroke-width="35.2"/>
<path d="M982.432 423.872C992.992 455.904 978.736 496.384 949.872 517.328C921.184 538.448 878.064 539.856 847.792 518.912C817.696 497.968 800.448 454.848 811.536 422.112C822.624 389.552 861.872 367.376 899.184 367.904C936.496 368.608 971.872 392.016 982.432 423.872Z" stroke="black" stroke-opacity="0.03" stroke-width="35.2"/>
<path d="M1336.54 712.16C1347.98 747.712 1336.54 790.304 1308.03 811.6C1279.34 832.896 1233.58 833.072 1205.6 811.952C1177.44 790.832 1166.88 748.416 1178.5 712.864C1189.94 677.312 1223.2 648.448 1256.99 648.272C1290.96 648.272 1325.1 676.608 1336.54 712.16Z" stroke="black" stroke-opacity="0.03" stroke-width="35.2"/>
<path d="M1546.51 243.296C1557.6 276.208 1547.04 317.568 1520.82 336.4C1494.59 355.408 1452.53 351.712 1421.9 330.064C1391.46 308.416 1372.1 268.64 1381.95 237.488C1391.81 206.336 1430.7 183.632 1466.61 184.512C1502.51 185.568 1535.25 210.208 1546.51 243.296Z" stroke="black" stroke-opacity="0.03" stroke-width="35.2"/>
<path d="M1418.91 -31.6161C1432.46 4.81586 1424.02 53.9199 1393.22 77.6799C1362.24 101.44 1308.91 100.032 1275.12 74.8639C1241.33 49.5199 1227.25 0.415852 1240.27 -35.4881C1253.47 -71.3921 1293.78 -93.9201 1331.62 -93.2161C1369.63 -92.3361 1405.18 -68.2241 1418.91 -31.6161Z" stroke="black" stroke-opacity="0.03" stroke-width="35.2"/>
<path d="M266.992 225.168C278.256 258.256 264.352 301.024 235.84 321.088C207.152 341.328 164.032 338.864 134.288 317.392C104.544 295.92 88.176 255.44 98.56 223.584C108.944 191.552 145.904 168.32 182.688 168.496C219.472 168.496 255.728 192.08 266.992 225.168Z" stroke="black" stroke-opacity="0.03" stroke-width="35.2"/>
<path d="M1056 -12.6082C1069.55 25.5838 1055.47 75.9198 1023.26 98.9758C990.88 122.032 940.016 117.808 906.048 92.6398C871.904 67.4718 854.48 21.1838 866.448 -14.8962C878.416 -50.9762 919.6 -77.0242 960.784 -76.8482C1001.79 -76.8482 1042.62 -50.8002 1056 -12.6082Z" stroke="black" stroke-opacity="0.03" stroke-width="35.2"/>
<path d="M170.368 -54.4962C182.16 -22.2882 168.256 22.7678 139.216 42.6558C110.352 62.5438 66.528 57.4398 39.6 36.1438C12.672 14.8478 2.81597 -22.4642 12.848 -52.0322C22.88 -81.6002 52.8 -103.248 86.592 -104.656C120.56 -105.888 158.4 -86.7042 170.368 -54.4962Z" stroke="black" stroke-opacity="0.03" stroke-width="35.2"/>
<path d="M911.328 795.584C920.832 828.144 899.184 867.744 867.504 889.92C835.824 912.096 794.112 916.848 766.128 897.664C737.968 878.48 723.712 835.36 734.976 800.512C746.24 765.488 783.2 738.736 822.096 738.032C860.992 737.504 901.824 763.024 911.328 795.584Z" stroke="black" stroke-opacity="0.03" stroke-width="35.2"/>
<path d="M24.816 726.944C35.904 762.496 18.304 805.616 -13.728 829.024C-45.936 852.432 -92.576 856.128 -124.608 834.304C-156.464 812.304 -173.712 764.608 -161.392 727.12C-149.072 689.632 -107.184 662.352 -66.352 662.88C-25.52 663.232 13.904 691.216 24.816 726.944Z" stroke="black" stroke-opacity="0.03" stroke-width="35.2"/>
<path d="M789.888 152.48C800.8 185.392 786.192 227.456 756.448 249.28C726.528 271.104 681.648 272.688 652.08 251.568C622.512 230.448 608.608 186.624 620.048 153.008C631.664 119.392 668.624 95.9839 705.584 96.1599C742.368 96.1599 778.8 119.744 789.888 152.48Z" stroke="black" stroke-opacity="0.03" stroke-width="35.2"/>
<path d="M453.904 -14.192C463.408 15.728 451.088 52.16 424.864 71.696C398.816 91.408 358.512 94.4 331.408 75.568C304.304 56.736 290.4 16.256 300.96 -15.424C311.52 -46.928 346.72 -69.456 379.984 -68.752C413.072 -68.224 444.4 -44.288 453.904 -14.192Z" stroke="black" stroke-opacity="0.03" stroke-width="35.2"/>
<path d="M569.008 400.992C579.04 431.264 565.664 470.336 538.032 490.576C510.224 510.816 468.512 512.4 440 492.336C411.312 472.272 396 430.912 406.736 399.76C417.472 368.608 454.256 348.016 489.632 348.544C524.832 348.896 558.8 370.544 569.008 400.992Z" stroke="black" stroke-opacity="0.03" stroke-width="35.2"/>
</g>
<defs>
<clipPath id="clip0_26_2">
<rect width="1584" height="1056" fill="white" transform="translate(-88 -152)"/>
</clipPath>
</defs>
</svg>
