<svg width="1361" height="1531" viewBox="0 0 1361 1531" fill="none" xmlns="http://www.w3.org/2000/svg">
<path d="M1158.31 1009.58C1204.15 994.645 1260.49 1008.24 1288.09 1044.35C1315.92 1080.68 1315.01 1139.53 1286.95 1176.09C1258.67 1212.86 1203.24 1227.35 1157.62 1212.86C1112 1198.15 1076.42 1154.69 1076.42 1111.22C1076.42 1067.76 1112.23 1024.29 1158.31 1009.58Z" stroke="black" stroke-opacity="0.03" stroke-width="45.6192"/>
<path d="M708.045 446.31C749.559 432.936 802.021 450.991 829.164 487.546C856.536 523.879 858.36 578.49 831.217 616.829C804.074 654.944 748.19 676.789 705.764 662.746C663.566 648.703 634.826 598.997 635.511 551.742C636.423 504.487 666.76 459.684 708.045 446.31Z" stroke="black" stroke-opacity="0.03" stroke-width="45.6192"/>
<path d="M1081.67 -2.16471C1127.74 -16.6532 1182.94 -2.16471 1210.54 33.9451C1238.14 70.2778 1238.37 128.232 1211 163.673C1183.63 199.337 1128.65 212.711 1082.58 198C1036.5 183.511 999.096 141.383 998.868 98.5862C998.868 55.5664 1035.59 12.3238 1081.67 -2.16471Z" stroke="black" stroke-opacity="0.03" stroke-width="45.6192"/>
<path d="M117.732 -106.483C164.948 -123.646 228.587 -112.947 259.38 -73.9391C290.173 -34.7087 288.348 32.8301 255.73 75.6269C222.885 118.424 159.246 136.256 112.714 119.761C66.1827 103.044 36.9864 51.9995 37.8988 4.07594C39.0393 -44.0705 70.2884 -89.0963 117.732 -106.483Z" stroke="black" stroke-opacity="0.03" stroke-width="45.6192"/>
<path d="M450.524 1352.4C493.406 1338.13 548.834 1355.74 574.837 1391.85C601.068 1428.18 597.874 1482.8 570.047 1520.47C542.219 1558.14 489.757 1578.87 448.471 1565.71C406.958 1552.56 376.849 1505.75 377.077 1459.17C377.077 1412.58 407.642 1366.66 450.524 1352.4Z" stroke="black" stroke-opacity="0.03" stroke-width="45.6192"/>
<path d="M142.367 353.138C191.864 335.974 257.099 353.806 286.98 394.597C316.86 435.611 311.386 500.029 278.768 543.048C246.15 586.291 186.161 608.358 139.402 593.201C92.6419 578.044 58.8836 525.885 59.1117 473.727C59.1117 421.791 92.87 370.078 142.367 353.138Z" stroke="black" stroke-opacity="0.03" stroke-width="45.6192"/>
<path d="M88.0799 1474.77C129.821 1459.84 188.214 1477.45 213.989 1514.22C239.764 1550.78 233.149 1606.28 205.549 1640.39C177.95 1674.49 129.593 1686.97 91.2733 1674.27C52.9531 1661.56 24.8973 1623.67 23.0726 1580.87C21.4759 1537.85 46.3383 1489.93 88.0799 1474.77Z" stroke="black" stroke-opacity="0.03" stroke-width="45.6192"/>
<path d="M1189.78 536.361C1231.98 524.325 1283.3 551.741 1312.04 591.863C1340.78 631.985 1346.94 684.813 1322.08 720.254C1297.22 755.918 1241.33 773.973 1196.17 759.707C1150.78 745.442 1116.11 698.633 1115.2 649.372C1114.51 600.111 1147.59 548.398 1189.78 536.361Z" stroke="black" stroke-opacity="0.03" stroke-width="45.6192"/>
<path d="M356.321 690.162C398.975 676.343 453.49 694.843 481.774 732.513C510.058 770.406 512.111 827.246 484.739 864.693C457.368 902.14 400.572 919.75 357.005 905.261C313.439 890.55 283.102 843.741 283.33 796.932C283.33 750.345 313.895 704.205 356.321 690.162Z" stroke="black" stroke-opacity="0.03" stroke-width="45.6192"/>
<path d="M140.314 1115.68C179.09 1103.64 226.306 1119.24 251.625 1152.46C277.172 1185.45 281.049 1236.49 256.643 1270.82C232.237 1305.14 179.775 1322.75 138.717 1309.38C97.8881 1296 68.6918 1251.42 69.6041 1209.3C70.2884 1167.39 101.309 1127.72 140.314 1115.68Z" stroke="black" stroke-opacity="0.03" stroke-width="45.6192"/>
<path d="M678.392 969.902C717.625 957.197 768.262 974.137 794.493 1009.13C820.724 1044.35 822.777 1097.18 796.774 1133.29C770.771 1169.62 717.169 1189.01 676.796 1175.42C636.423 1161.82 609.735 1115.23 610.42 1070.43C610.876 1025.85 638.932 982.83 678.392 969.902Z" stroke="black" stroke-opacity="0.03" stroke-width="45.6192"/>
</svg>
